name Walk10.mot
datacolumns 19
datarows 15
range 1.12000000 1.19000000
endheader

                time	   L_ground_force_vx	   L_ground_force_vy	   L_ground_force_vz	   L_ground_force_px	   L_ground_force_py	   L_ground_force_pz	   R_ground_force_vx	   R_ground_force_vy	   R_ground_force_vz	   R_ground_force_px	   R_ground_force_py	   R_ground_force_pz	   L_ground_torque_x	   L_ground_torque_y	   L_ground_torque_z	   R_ground_torque_x	   R_ground_torque_y	   R_ground_torque_z	
          1.12000000	          0.00000001	         -0.00000008	          0.00000001	         -0.00000000	          0.00000000	         -0.00000000	         -4.39324277	         90.11163660	          9.40351306	         -0.00141810	          0.00000000	          0.00149772	          0.00000000	          0.00000000	          0.00000000	          0.00000000	          0.00146460	          0.00000000	
          1.12500000	          0.00000001	         -0.00000010	          0.00000001	         -0.00000000	          0.00000000	         -0.00000000	        -12.78655208	        138.35328119	         11.22927611	         -0.05546941	          0.00000000	          0.07860322	          0.00000000	          0.00000000	          0.00000000	          0.00000000	         -0.06892237	          0.00000000	
          1.13000000	          0.00000001	         -0.00000011	          0.00000001	         -0.00000000	          0.00000000	         -0.00000000	        -21.80211701	        190.80671305	         13.19254494	         -0.10539664	          0.00000000	          0.15045471	          0.00000000	          0.00000000	          0.00000000	          0.00000000	         -0.13464744	          0.00000000	
          1.13500000	          0.00000002	         -0.00000012	          0.00000001	         -0.00000000	          0.00000000	         -0.00000000	        -31.23713610	        244.77572295	         15.02336780	         -0.14848233	          0.00000000	          0.21333400	          0.00000000	          0.00000000	          0.00000000	          0.00000000	         -0.19250137	          0.00000000	
          1.14000000	          0.00000002	         -0.00000012	          0.00000001	         -0.00000000	          0.00000000	         -0.00000000	        -41.08702869	        297.60606345	         16.31076552	         -0.18346106	          0.00000000	          0.26554235	          0.00000000	          0.00000000	          0.00000000	          0.00000000	         -0.24144331	          0.00000000	
          1.14500000	          0.00000002	         -0.00000010	          0.00000001	         -0.00000000	          0.00000000	         -0.00000000	        -51.49008656	        347.51035415	         16.62491262	         -0.21013216	          0.00000000	          0.30685055	          0.00000000	          0.00000000	          0.00000000	          0.00000000	         -0.28117129	          0.00000000	
          1.15000000	          0.00000002	         -0.00000006	         -0.00000000	          0.00000000	          0.00000000	          0.00000000	        -62.56377337	        393.54204939	         15.66433631	         -0.22900158	          0.00000000	          0.33798433	          0.00000000	          0.00000000	          0.00000000	          0.00000000	         -0.31099495	          0.00000000	
          1.15500000	          0.00000002	          0.00000000	         -0.00000001	          0.00000000	          0.00000000	          0.00000000	        -74.28787655	        435.37334148	         13.32439087	         -0.24100117	          0.00000000	          0.36021368	          0.00000000	          0.00000000	          0.00000000	          0.00000000	         -0.32971466	          0.00000000	
          1.16000000	          0.00000001	          0.00000011	         -0.00000003	          0.00000000	          0.00000000	          0.00000000	        -86.46067602	        473.30419872	          9.69305219	         -0.24728148	          0.00000000	          0.37504898	          0.00000000	          0.00000000	          0.00000000	          0.00000000	         -0.33612481	          0.00000000	
          1.16500000	          0.00000000	          0.00000026	         -0.00000005	          0.00000000	          0.00000000	          0.00000000	        -98.74520159	        508.16167499	          5.01377883	         -0.24906646	          0.00000000	          0.38402736	          0.00000000	          0.00000000	          0.00000000	          0.00000000	         -0.33056630	          0.00000000	
          1.17000000	         -0.00000001	          0.00000046	         -0.00000007	          0.00000000	          0.00000000	          0.00000000	       -110.76915702	        540.94860829	         -0.34835713	         -0.24755281	          0.00000000	          0.38857815	          0.00000000	          0.00000000	          0.00000000	          0.00000000	         -0.31699945	          0.00000000	
          1.17500000	         -0.00000004	          0.00000072	         -0.00000010	          0.00000000	          0.00000000	          0.00000000	       -122.18826935	        572.49828926	         -5.94392409	         -0.24383498	          0.00000000	          0.38995224	          0.00000000	         -0.00000000	          0.00000000	          0.00000000	         -0.30376107	          0.00000000	
          1.18000000	         -0.00000007	          0.00000103	         -0.00000013	          0.00000000	          0.00000000	          0.00000000	       -132.67870171	        603.36265251	        -11.29755644	         -0.23884728	          0.00000000	          0.38918620	          0.00000000	         -0.00000000	          0.00000000	          0.00000000	         -0.30143674	          0.00000000	
          1.18500000	         -0.00000012	          0.00000140	         -0.00000017	          0.00000000	          0.00000000	          0.00000000	       -141.91572634	        633.88963347	        -15.98406702	         -0.23333553	          0.00000000	          0.38709828	          0.00000000	         -0.00000000	          0.00000000	          0.00000000	         -0.31952824	          0.00000000	
          1.19000000	         -0.00000017	          0.00000179	         -0.00000020	          0.00000000	          0.00000000	          0.00000000	       -149.59223718	        664.28331979	        -19.68591411	         -0.22786014	          0.00000000	          0.38430585	          0.00000000	         -0.00000000	          0.00000000	          0.00000000	         -0.36355673	          0.00000000	
